<?xml version="1.0" encoding="utf-8"?>
<!-- Generator: Adobe Illustrator 24.2.3, SVG Export Plug-In . SVG Version: 6.00 Build 0)  -->
<svg version="1.1" id="Layer_1" xmlns="http://www.w3.org/2000/svg" xmlns:xlink="http://www.w3.org/1999/xlink" x="0px" y="0px"
	 viewBox="0 0 110.031 49.781" style="enable-background:new 0 0 110.031 49.781;" xml:space="preserve">
<style type="text/css">
	.st0{fill-rule:evenodd;clip-rule:evenodd;fill:#28324F;}
</style>
<path id="_1440_logo" class="st0" d="M38.722,24.809h-4.1V1.743c-0.044-0.792-0.721-1.398-1.513-1.355
	c-0.411,0.023-0.792,0.22-1.047,0.543l-19.99,25.2c-0.628,0.82-0.472,1.994,0.347,2.622c0.35,0.268,0.785,0.404,1.226,0.383h15.757
	v8.4c0.009,0.322,0.277,0.576,0.599,0.567c0,0,0.001,0,0.001,0h4.03c0.322,0.01,0.59-0.244,0.6-0.566c0,0,0-0.001,0-0.001v-8.4h5.38
	c0.345,0.012,0.634-0.258,0.646-0.603c0.002-0.062-0.005-0.123-0.021-0.183l-0.822-2.763c-0.15-0.472-0.592-0.789-1.087-0.781
	 M20.191,24.156l8.77-11.058c0.086-0.108,0.244-0.126,0.353-0.04c0.056,0.045,0.09,0.111,0.094,0.182v11.569h-8.876
	c-0.22,0.016-0.412-0.149-0.429-0.369c-0.008-0.101,0.024-0.202,0.088-0.281 M92.832,4.974c6.6,0,11.969,6.315,11.969,14.076
	s-5.377,14.081-11.975,14.081S80.862,26.814,80.862,19.05S86.231,4.974,92.832,4.974 M92.831-0.005
	c-9.5,0-17.205,8.533-17.205,19.055s7.7,19.057,17.205,19.057s17.2-8.531,17.2-19.057S102.331-0.005,92.831-0.005 M70.697,24.809
	h-4.095V1.743c-0.041-0.792-0.717-1.4-1.509-1.359c-0.413,0.022-0.796,0.22-1.052,0.544L44.048,26.131
	c-0.628,0.82-0.472,1.994,0.348,2.622c0.35,0.268,0.784,0.404,1.224,0.383h15.758v8.4c0.008,0.321,0.274,0.574,0.595,0.567h4.032
	c0.322,0.009,0.591-0.245,0.6-0.567v-8.4h5.379c0.345,0.012,0.635-0.257,0.647-0.602c0.002-0.062-0.005-0.124-0.021-0.184
	l-0.821-2.763c-0.152-0.472-0.594-0.789-1.089-0.781 M52.164,24.156l8.769-11.058c0.086-0.109,0.243-0.128,0.352-0.042
	c0.057,0.045,0.092,0.112,0.096,0.184v11.569h-8.877c-0.22,0.016-0.412-0.15-0.428-0.37c-0.007-0.101,0.024-0.201,0.088-0.28
	 M0.171,7.452v29.714c0.013,0.533,0.456,0.955,0.989,0.943h3.245c0.533,0.012,0.976-0.41,0.989-0.943V1.256
	C5.366,0.748,4.93,0.358,4.422,0.387c-0.301,0.017-0.575,0.18-0.733,0.436L0.61,5.898C0.323,6.366,0.172,6.904,0.171,7.452
	 M6.393,44.331l0.095-0.05l0.067,0.079v5.021c0.004,0.147,0.127,0.263,0.274,0.259h0.617c0.147,0.003,0.269-0.112,0.273-0.259
	v-6.544c-0.004-0.147-0.126-0.263-0.273-0.26H6.162c-0.108-0.002-0.207,0.061-0.251,0.16L3.93,47.282l-0.077,0.05l-0.078-0.05
	l-1.97-4.545c-0.044-0.099-0.144-0.162-0.252-0.16H0.27c-0.147-0.003-0.268,0.113-0.272,0.26v6.544
	c0.004,0.146,0.126,0.262,0.272,0.259h0.62c0.147,0.003,0.268-0.112,0.272-0.259v-5.02l0.067-0.077h0.017l0.078,0.05l2.266,5.122
	c0.074,0.148,0.255,0.208,0.403,0.133c0.058-0.029,0.104-0.076,0.133-0.133L6.393,44.331z M15.445,49.771
	c2.029,0,3.2-1.061,3.2-2.909v-4.026c-0.004-0.147-0.127-0.263-0.274-0.26h-0.629c-0.147-0.003-0.269,0.113-0.272,0.26c0,0,0,0,0,0
	v3.995c-0.035,1.118-0.97,1.997-2.089,1.961c-1.069-0.034-1.928-0.892-1.961-1.961v-3.995c-0.004-0.147-0.127-0.263-0.274-0.26
	h-0.634c-0.147-0.003-0.269,0.113-0.273,0.26v4.035C12.239,48.714,13.408,49.771,15.445,49.771 M23.158,42.837v6.544
	c0.004,0.147,0.126,0.262,0.273,0.259h3.965c0.147,0.004,0.269-0.112,0.273-0.259c0,0,0,0,0,0v-0.435
	c-0.003-0.147-0.125-0.264-0.273-0.261c0,0,0,0,0,0h-3.074v-5.849c-0.004-0.146-0.126-0.261-0.272-0.258h-0.619
	C23.284,42.574,23.162,42.689,23.158,42.837 M33.279,49.381v-5.85h2.026c0.146,0.004,0.268-0.112,0.272-0.258
	c0-0.001,0-0.001,0-0.002v-0.435c-0.003-0.147-0.125-0.263-0.272-0.26c0,0,0,0,0,0h-5.217c-0.147-0.003-0.269,0.113-0.272,0.26
	c0,0,0,0,0,0v0.435c0.003,0.147,0.125,0.263,0.272,0.26c0,0,0,0,0,0h2.027v5.85c0.004,0.146,0.126,0.262,0.272,0.259h0.619
	C33.153,49.644,33.275,49.528,33.279,49.381C33.279,49.381,33.279,49.381,33.279,49.381 M40.771,49.381v-6.545
	c-0.003-0.147-0.125-0.263-0.272-0.26c0,0,0,0,0,0h-0.618c-0.147-0.004-0.27,0.112-0.274,0.26c0,0,0,0,0,0v6.545
	c0.004,0.147,0.127,0.263,0.274,0.259h0.618C40.646,49.643,40.767,49.528,40.771,49.381 M48.144,48.374l-2.213-5.629
	c-0.042-0.103-0.143-0.17-0.255-0.168h-0.743c-0.143-0.006-0.265,0.105-0.271,0.249c-0.002,0.036,0.005,0.073,0.018,0.106l2.7,6.543
	c0.043,0.102,0.143,0.167,0.254,0.166h1.174c0.111,0.002,0.211-0.064,0.254-0.166l2.7-6.543c0.052-0.134-0.015-0.286-0.149-0.338
	c-0.033-0.013-0.069-0.019-0.105-0.017h-0.742c-0.112-0.002-0.213,0.065-0.255,0.168l-2.213,5.629h-0.157 M56.847,46.521h3.518
	c0.147,0.003,0.268-0.112,0.272-0.259v-0.437c-0.004-0.146-0.126-0.262-0.272-0.258c0,0,0,0,0,0h-3.518v-2.036h3.6
	c0.147,0.003,0.268-0.112,0.272-0.259v-0.435c-0.003-0.147-0.125-0.263-0.272-0.26c0,0,0,0,0,0h-4.485
	c-0.147-0.003-0.269,0.113-0.272,0.26c0,0,0,0,0,0v6.544c0.003,0.147,0.125,0.263,0.272,0.26c0,0,0,0,0,0h4.49
	c0.147,0.003,0.269-0.113,0.272-0.26c0,0,0,0,0,0v-0.436c-0.004-0.146-0.126-0.262-0.272-0.258c0,0,0,0,0,0h-3.6v-2.166H56.847z
	 M68.238,42.577h-2.976c-0.147-0.004-0.27,0.112-0.274,0.26c0,0,0,0,0,0v6.544c0.004,0.147,0.127,0.263,0.274,0.259h0.617
	c0.147,0.003,0.27-0.112,0.275-0.259v-2.436h1.451l1.6,2.569c0.052,0.08,0.142,0.127,0.237,0.126h0.687
	c0.143,0.008,0.266-0.101,0.275-0.244c0.003-0.055-0.011-0.109-0.041-0.156l-1.516-2.318l-0.006-0.077l0.065-0.044
	c1.019-0.13,1.769-1.018,1.726-2.044c0.011-1.201-0.954-2.184-2.155-2.195c-0.082-0.001-0.163,0.003-0.245,0.012 M68.062,45.988
	h-1.9v-2.457h1.9c0.678-0.082,1.295,0.401,1.377,1.079s-0.401,1.295-1.079,1.377C68.261,45.999,68.161,45.999,68.062,45.988
	 M80.241,47.617c0-1.517-1.442-1.866-2.711-2.173c-0.915-0.223-1.706-0.413-1.706-1.031c0.077-0.628,0.649-1.074,1.276-0.997
	c0.032,0.004,0.063,0.009,0.095,0.016c0.705-0.011,1.394,0.202,1.97,0.609c0.12,0.093,0.292,0.076,0.39-0.04l0.328-0.4
	c0.088-0.108,0.073-0.266-0.035-0.355c-0.002-0.001-0.004-0.003-0.005-0.004c-0.735-0.533-1.627-0.806-2.535-0.774
	c-1.555,0-2.683,0.855-2.683,2.032c0,1.457,1.389,1.792,2.614,2.087c0.933,0.224,1.814,0.437,1.814,1.153
	c0,0.492-0.42,1.065-1.607,1.065c-0.792,0.006-1.561-0.264-2.177-0.762c-0.121-0.098-0.299-0.079-0.397,0.042
	c-0.001,0.001-0.002,0.003-0.003,0.004l-0.319,0.422c-0.081,0.105-0.067,0.254,0.032,0.342c0.794,0.631,1.787,0.956,2.8,0.918
	c2.648,0,2.854-1.648,2.854-2.153 M85.536,49.381v-6.545c-0.004-0.147-0.125-0.263-0.272-0.26h-0.62
	c-0.147-0.003-0.269,0.113-0.272,0.26c0,0,0,0,0,0v6.545c0.004,0.147,0.125,0.262,0.272,0.259h0.62
	C85.41,49.643,85.532,49.527,85.536,49.381 M93.029,49.381v-5.85h2.026c0.146,0.004,0.268-0.112,0.272-0.258
	c0-0.001,0-0.001,0-0.002v-0.435c-0.003-0.147-0.125-0.263-0.272-0.26c0,0,0,0,0,0h-5.218c-0.147-0.003-0.269,0.113-0.272,0.26
	c0,0,0,0,0,0v0.435c0.003,0.147,0.125,0.263,0.272,0.26c0,0,0,0,0,0h2.025v5.85c0.004,0.146,0.125,0.262,0.271,0.259h0.62
	c0.147,0.003,0.269-0.112,0.273-0.259 M102.094,49.381v-2.582l0.06-0.188l2.523-3.63c0.078-0.12,0.044-0.28-0.076-0.358
	c-0.045-0.029-0.097-0.044-0.15-0.042h-0.664c-0.092-0.001-0.179,0.045-0.231,0.121l-1.968,2.939l-0.069,0.038l-0.073-0.038
	l-1.984-2.945c-0.052-0.075-0.138-0.119-0.229-0.119h-0.671c-0.144-0.004-0.263,0.109-0.267,0.253
	c-0.001,0.052,0.013,0.103,0.041,0.147l2.534,3.63l0.06,0.188v2.586c0.004,0.147,0.125,0.262,0.272,0.259h0.619
	C101.968,49.643,102.089,49.528,102.094,49.381"/>
</svg>
